<svg width="210mm" height="297mm" viewBox="0 0 210 297" xml:space="preserve" xmlns="http://www.w3.org/2000/svg"><g style="display:inline;opacity:1"><g transform="translate(-108.4 -179.741)scale(2.09627)" style="stroke:#bbdad8;stroke-opacity:1" fill="none"><circle style="display:inline;fill:#000;fill-opacity:0;stroke:#bbdad8;stroke-width:3.3;stroke-dasharray:none;stroke-opacity:1" cx="72.198" cy="138.079" r="11.846"/><path style="fill:#000;fill-opacity:0;stroke:#bbdad8;stroke-width:3.3;stroke-linecap:round;stroke-linejoin:round;stroke-dasharray:none;stroke-opacity:1" d="m56.028 180.872 3.871-24.6c.702-2.977 5.216-5.21 7.714-6.75"/><path style="opacity:1;fill:#000;fill-opacity:0;stroke:#bbdad8;stroke-width:3.3;stroke-linecap:round;stroke-dasharray:none;stroke-opacity:1" d="M80.382 151.956c-.508-.28-1.962-1.543-4.161-2.774"/></g><g transform="matrix(-2.09627 0 0 2.09627 318.4 -179.663)" style="display:inline;stroke:#bbdad8;stroke-opacity:1" fill="none"><circle style="display:inline;fill:#000;fill-opacity:0;stroke:#bbdad8;stroke-width:3.3;stroke-dasharray:none;stroke-opacity:1" cx="72.198" cy="138.079" r="11.846"/><path style="fill:#000;fill-opacity:0;stroke:#bbdad8;stroke-width:3.3;stroke-linecap:round;stroke-linejoin:round;stroke-dasharray:none;stroke-opacity:1" d="m56.028 180.872 3.871-24.6c.702-2.977 5.216-5.21 7.714-6.75"/><path style="opacity:1;fill:#000;fill-opacity:0;stroke:#bbdad8;stroke-width:3.3;stroke-linecap:round;stroke-dasharray:none;stroke-opacity:1" d="M80.382 151.956c-.508-.28-1.962-1.543-4.161-2.774"/></g><g transform="translate(-106.564 -178.823)scale(2.09627)" style="stroke:#bbdad8;stroke-opacity:1"><path style="fill:red;fill-opacity:0;stroke:#bbdad8;stroke-width:3.29999;stroke-linecap:round;stroke-linejoin:round;stroke-dasharray:none;stroke-opacity:1" d="m95.295 146.889-15.446 9.82a7.22 7.22 118.637 0 0-3.345 6.124l.052 10.57c.01 2.161 1.7 4.437 3.816 4.43q.403-.001.8-.013c1.845-.053 3.29-2.1 3.286-3.988l-.028-14.389" fill="none"/><circle style="display:inline;opacity:1;fill:#000;fill-opacity:0;stroke:#bbdad8;stroke-width:3.3;stroke-dasharray:none;stroke-opacity:1" cx="100.924" cy="136.247" r="11.846" fill="none"/><path style="display:inline;fill:red;fill-opacity:0;stroke:#bbdad8;stroke-width:3.29999;stroke-linecap:round;stroke-linejoin:round;stroke-dasharray:none;stroke-opacity:1" d="m95.295 146.889-15.446 9.82a7.22 7.22 118.637 0 0-3.345 6.124l.052 10.57c.01 2.161 1.7 4.437 3.816 4.43q.403-.001.8-.013c1.845-.053 3.29-2.1 3.286-3.988l-.028-14.389" transform="matrix(-1 0 0 1 201.849 .037)" fill="none"/><path style="display:inline;opacity:1;fill:none;stroke:#bbdad8;stroke-width:2.64583;stroke-linecap:round;stroke-linejoin:round;stroke-dasharray:none;stroke-opacity:1" d="m100.924 148.092-5.1 20.087 5.1 6.835 4.9-6.835z"/></g></g></svg>